<?xml version="1.0" encoding="UTF-8"?>
<svg width="48px" height="48px" viewBox="0 0 48 48" version="1.1" xmlns="http://www.w3.org/2000/svg" xmlns:xlink="http://www.w3.org/1999/xlink">
    <!-- Generator: Sketch 49.3 (51167) - http://www.bohemiancoding.com/sketch -->
    <title>Solo-1</title>
    <desc>Created with Sketch.</desc>
    <defs>
        <filter x="-0.6%" y="-1.1%" width="101.2%" height="103.0%" filterUnits="objectBoundingBox" id="filter-1">
            <feOffset dx="0" dy="2" in="SourceAlpha" result="shadowOffsetOuter1"></feOffset>
            <feGaussianBlur stdDeviation="2" in="shadowOffsetOuter1" result="shadowBlurOuter1"></feGaussianBlur>
            <feColorMatrix values="0 0 0 0 0   0 0 0 0 0   0 0 0 0 0  0 0 0 0.5 0" type="matrix" in="shadowBlurOuter1" result="shadowMatrixOuter1"></feColorMatrix>
            <feMerge>
                <feMergeNode in="shadowMatrixOuter1"></feMergeNode>
                <feMergeNode in="SourceGraphic"></feMergeNode>
            </feMerge>
        </filter>
    </defs>
    <g id="getTalent---Virtual-Teambuilding" stroke="none" stroke-width="1" fill="none" fill-rule="evenodd">
        <g id="01-Freelancer-Work-Order-Overview-v1.4" transform="translate(-414.000000, -676.000000)">
            <g id="Project-2" filter="url(#filter-1)" transform="translate(390.000000, 664.000000)">
                <g id="Project-Titlebar">
                    <rect id="Project-Title-Bar" fill="#E6E6E6" x="0" y="0" width="1140" height="64"></rect>
                    <g id="Icon" opacity="0.9" transform="translate(32.000000, 16.000000)">
                        <rect id="Rectangle-2" x="0" y="0" width="32" height="32"></rect>
                        <g id="single-body" transform="translate(11.000000, 5.000000)" stroke="#212529" stroke-linecap="square" stroke-width="2">
                            <path d="M5,6 C3.343,6 2,4.657 2,3 C2,1.343 3.343,0 5,0 C6.657,0 8,1.343 8,3 C8,4.657 6.657,6 5,6 Z" id="Shape"></path>
                            <path d="M8,23 L2,23 L2,17 L0,17 L0,11 C0,9.895 0.895,9 2,9 L8,9 C9.105,9 10,9.895 10,11 L10,17 L8,17 L8,23 Z" id="Shape"></path>
                        </g>
                    </g>
                </g>
            </g>
        </g>
    </g>
</svg>